<?xml version="1.0" encoding="utf-8"?><!-- Uploaded to: SVG Repo, www.svgrepo.com, Generator: SVG Repo Mixer Tools -->
<svg width="35px" height="35px" viewBox="0 0 24 24" fill="none" xmlns="http://www.w3.org/2000/svg">
<path d="M15 18H9M20 3H19M19 3H5M19 3C19 5.51022 17.7877 7.86592 15.7451 9.32495L12 12M5 3H4M5 3C5 5.51022 6.21228 7.86592 8.25493 9.32495L12 12M20 21H19M19 21H5M19 21C19 18.4898 17.7877 16.1341 15.7451 14.675L12 12M5 21H4M5 21C5 18.4898 6.21228 16.1341 8.25493 14.675L12 12" stroke="#000000" stroke-width="2" stroke-linecap="round" stroke-linejoin="round"/>
</svg>